<mxfile host="app.diagrams.net" modified="2022-11-16T16:12:34.142Z" agent="5.0 (Windows NT 10.0; Win64; x64) AppleWebKit/537.36 (KHTML, like Gecko) Chrome/107.0.0.0 Safari/537.36" etag="2QgPH2tjfC9CSbFgmB01" version="20.5.3" type="github">
  <diagram id="zSLrW9iclxR0P2SrXjDv" name="Page-1">
    <mxGraphModel dx="782" dy="368" grid="1" gridSize="10" guides="1" tooltips="1" connect="1" arrows="1" fold="1" page="1" pageScale="1" pageWidth="827" pageHeight="1169" background="none" math="0" shadow="0">
      <root>
        <mxCell id="0" />
        <mxCell id="1" parent="0" />
        <mxCell id="fAVFCxH8SQh7ahzYsibG-3" value="" style="endArrow=classic;html=1;rounded=0;exitX=0.5;exitY=1;exitDx=0;exitDy=0;entryX=0.5;entryY=0;entryDx=0;entryDy=0;" parent="1" source="fAVFCxH8SQh7ahzYsibG-42" target="fAVFCxH8SQh7ahzYsibG-4" edge="1">
          <mxGeometry width="50" height="50" relative="1" as="geometry">
            <mxPoint x="404.5" y="100" as="sourcePoint" />
            <mxPoint x="400" y="100" as="targetPoint" />
          </mxGeometry>
        </mxCell>
        <mxCell id="fAVFCxH8SQh7ahzYsibG-4" value="Récupération de l&#39;entrée de l&#39;utilisateur (input)" style="shape=parallelogram;perimeter=parallelogramPerimeter;whiteSpace=wrap;html=1;fixedSize=1;" parent="1" vertex="1">
          <mxGeometry x="258.5" y="100" width="280" height="50" as="geometry" />
        </mxCell>
        <mxCell id="fAVFCxH8SQh7ahzYsibG-8" value="Non" style="text;html=1;align=center;verticalAlign=middle;resizable=0;points=[];autosize=1;strokeColor=none;fillColor=none;rotation=0;" parent="1" vertex="1">
          <mxGeometry x="610" y="160" width="50" height="30" as="geometry" />
        </mxCell>
        <mxCell id="fAVFCxH8SQh7ahzYsibG-23" value="input présent dans le&lt;br&gt;tableau" style="rhombus;whiteSpace=wrap;html=1;" parent="1" vertex="1">
          <mxGeometry x="308.5" y="350" width="180" height="140" as="geometry" />
        </mxCell>
        <mxCell id="fAVFCxH8SQh7ahzYsibG-42" value="DEBUT&lt;br&gt;L&#39;interface affiche tout" style="rounded=1;whiteSpace=wrap;html=1;" parent="1" vertex="1">
          <mxGeometry x="290.5" width="216" height="60" as="geometry" />
        </mxCell>
        <mxCell id="fAVFCxH8SQh7ahzYsibG-44" value="Message d&#39;erreur à l&#39;utilisateur" style="rounded=1;whiteSpace=wrap;html=1;" parent="1" vertex="1">
          <mxGeometry x="570" y="390" width="120" height="60" as="geometry" />
        </mxCell>
        <mxCell id="fAVFCxH8SQh7ahzYsibG-6" value="Caractères saisie &amp;gt; 2" style="rhombus;whiteSpace=wrap;html=1;" parent="1" vertex="1">
          <mxGeometry x="326" y="180" width="145" height="100" as="geometry" />
        </mxCell>
        <mxCell id="fAVFCxH8SQh7ahzYsibG-48" value="" style="endArrow=classic;html=1;rounded=0;exitX=1;exitY=0.5;exitDx=0;exitDy=0;entryX=1;entryY=0.5;entryDx=0;entryDy=0;" parent="1" source="fAVFCxH8SQh7ahzYsibG-6" target="fAVFCxH8SQh7ahzYsibG-4" edge="1">
          <mxGeometry width="50" height="50" relative="1" as="geometry">
            <mxPoint x="530" y="430" as="sourcePoint" />
            <mxPoint x="580" y="380" as="targetPoint" />
            <Array as="points">
              <mxPoint x="610" y="230" />
              <mxPoint x="610" y="125" />
            </Array>
          </mxGeometry>
        </mxCell>
        <mxCell id="fAVFCxH8SQh7ahzYsibG-89" value="FIN&lt;br&gt;Choix d&#39;une recette" style="ellipse;whiteSpace=wrap;html=1;" parent="1" vertex="1">
          <mxGeometry x="338.5" y="650" width="120" height="80" as="geometry" />
        </mxCell>
        <mxCell id="fAVFCxH8SQh7ahzYsibG-93" value="Mise à jour des recettes&lt;br&gt;Actualisation des mots clés" style="shape=parallelogram;perimeter=parallelogramPerimeter;whiteSpace=wrap;html=1;fixedSize=1;" parent="1" vertex="1">
          <mxGeometry x="273.5" y="540" width="250" height="60" as="geometry" />
        </mxCell>
        <mxCell id="fAVFCxH8SQh7ahzYsibG-95" value="" style="endArrow=classic;html=1;rounded=0;entryX=0.5;entryY=0;entryDx=0;entryDy=0;exitX=0.5;exitY=1;exitDx=0;exitDy=0;" parent="1" source="fAVFCxH8SQh7ahzYsibG-23" target="fAVFCxH8SQh7ahzYsibG-93" edge="1">
          <mxGeometry width="50" height="50" relative="1" as="geometry">
            <mxPoint x="420" y="620" as="sourcePoint" />
            <mxPoint x="340" y="470" as="targetPoint" />
          </mxGeometry>
        </mxCell>
        <mxCell id="fAVFCxH8SQh7ahzYsibG-97" value="" style="endArrow=classic;html=1;rounded=0;exitX=0.5;exitY=1;exitDx=0;exitDy=0;entryX=0.5;entryY=0;entryDx=0;entryDy=0;" parent="1" source="fAVFCxH8SQh7ahzYsibG-4" edge="1">
          <mxGeometry width="50" height="50" relative="1" as="geometry">
            <mxPoint x="350" y="160" as="sourcePoint" />
            <mxPoint x="398.5" y="180" as="targetPoint" />
          </mxGeometry>
        </mxCell>
        <mxCell id="mlu0f4XzIQPuro6vvEub-3" value="" style="endArrow=classic;html=1;rounded=0;entryX=0.5;entryY=0;entryDx=0;entryDy=0;exitX=0.5;exitY=1;exitDx=0;exitDy=0;" edge="1" parent="1" source="fAVFCxH8SQh7ahzYsibG-6" target="fAVFCxH8SQh7ahzYsibG-23">
          <mxGeometry width="50" height="50" relative="1" as="geometry">
            <mxPoint x="380" y="250" as="sourcePoint" />
            <mxPoint x="398.5" y="310" as="targetPoint" />
          </mxGeometry>
        </mxCell>
        <mxCell id="mlu0f4XzIQPuro6vvEub-6" value="" style="endArrow=classic;html=1;rounded=0;entryX=0.5;entryY=0;entryDx=0;entryDy=0;exitX=0.5;exitY=1;exitDx=0;exitDy=0;" edge="1" parent="1" source="fAVFCxH8SQh7ahzYsibG-93" target="fAVFCxH8SQh7ahzYsibG-89">
          <mxGeometry width="50" height="50" relative="1" as="geometry">
            <mxPoint x="380" y="740" as="sourcePoint" />
            <mxPoint x="430" y="690" as="targetPoint" />
          </mxGeometry>
        </mxCell>
        <mxCell id="mlu0f4XzIQPuro6vvEub-7" style="edgeStyle=orthogonalEdgeStyle;rounded=0;orthogonalLoop=1;jettySize=auto;html=1;exitX=0.5;exitY=1;exitDx=0;exitDy=0;" edge="1" parent="1">
          <mxGeometry relative="1" as="geometry">
            <mxPoint x="398.5" y="450" as="sourcePoint" />
            <mxPoint x="398.5" y="450" as="targetPoint" />
          </mxGeometry>
        </mxCell>
        <mxCell id="mlu0f4XzIQPuro6vvEub-8" value="Oui" style="text;html=1;align=center;verticalAlign=middle;resizable=0;points=[];autosize=1;strokeColor=none;fillColor=none;" vertex="1" parent="1">
          <mxGeometry x="400" y="310" width="40" height="30" as="geometry" />
        </mxCell>
        <mxCell id="fAVFCxH8SQh7ahzYsibG-26" value="Non" style="text;html=1;align=center;verticalAlign=middle;resizable=0;points=[];autosize=1;strokeColor=none;fillColor=none;rotation=0;" parent="1" vertex="1">
          <mxGeometry x="500" y="390" width="50" height="30" as="geometry" />
        </mxCell>
        <mxCell id="mlu0f4XzIQPuro6vvEub-10" value="" style="endArrow=classic;html=1;rounded=0;entryX=0;entryY=0.5;entryDx=0;entryDy=0;exitX=1;exitY=0.5;exitDx=0;exitDy=0;" edge="1" parent="1" source="fAVFCxH8SQh7ahzYsibG-23" target="fAVFCxH8SQh7ahzYsibG-44">
          <mxGeometry width="50" height="50" relative="1" as="geometry">
            <mxPoint x="380" y="450" as="sourcePoint" />
            <mxPoint x="430" y="400" as="targetPoint" />
          </mxGeometry>
        </mxCell>
        <mxCell id="mlu0f4XzIQPuro6vvEub-11" value="Oui" style="text;html=1;align=center;verticalAlign=middle;resizable=0;points=[];autosize=1;strokeColor=none;fillColor=none;" vertex="1" parent="1">
          <mxGeometry x="400" y="495" width="40" height="30" as="geometry" />
        </mxCell>
      </root>
    </mxGraphModel>
  </diagram>
</mxfile>
